<svg width="22" height="26" viewBox="0 0 22 26" xmlns="http://www.w3.org/2000/svg">
<path fill-rule="evenodd" clip-rule="evenodd" d="M21.9375 18.8925C21.936 18.9524 21.9301 19.0122 21.92 19.0713C21.9464 19.207 21.9424 19.3468 21.9083 19.4808C21.8743 19.6148 21.8111 19.7396 21.7231 19.8463C21.6352 19.9529 21.5248 20.0389 21.3998 20.0978C21.2748 20.1568 21.1382 20.1875 21 20.1875H3.5C3.29481 20.1875 3.09163 20.2279 2.90206 20.3064C2.71249 20.385 2.54024 20.5001 2.39515 20.6451C2.25005 20.7902 2.13496 20.9625 2.05644 21.1521C1.97792 21.3416 1.9375 21.5448 1.9375 21.75C1.9375 21.9552 1.97792 22.1584 2.05644 22.3479C2.13496 22.5375 2.25005 22.7098 2.39515 22.8549C2.54024 22.9999 2.71249 23.115 2.90206 23.1936C3.09163 23.2721 3.29481 23.3125 3.5 23.3125H21C21.2486 23.3125 21.4871 23.4113 21.6629 23.5871C21.8387 23.7629 21.9375 24.0014 21.9375 24.25C21.9375 24.4986 21.8387 24.7371 21.6629 24.9129C21.4871 25.0887 21.2486 25.1875 21 25.1875H3.5C2.58832 25.1875 1.71398 24.8253 1.06932 24.1807C0.424664 23.536 0.0625 22.6617 0.0625 21.75V4.25C0.0625 3.33832 0.424664 2.46398 1.06932 1.81932C1.71398 1.17466 2.58832 0.8125 3.5 0.8125H20.25C21.1825 0.8125 21.9375 1.5675 21.9375 2.5V18.8925ZM7.25 5.8125C7.00136 5.8125 6.7629 5.91127 6.58709 6.08709C6.41127 6.2629 6.3125 6.50136 6.3125 6.75C6.3125 6.99864 6.41127 7.2371 6.58709 7.41291C6.7629 7.58873 7.00136 7.6875 7.25 7.6875H14.75C14.9986 7.6875 15.2371 7.58873 15.4129 7.41291C15.5887 7.2371 15.6875 6.99864 15.6875 6.75C15.6875 6.50136 15.5887 6.2629 15.4129 6.08709C15.2371 5.91127 14.9986 5.8125 14.75 5.8125H7.25Z" fill="white"/>
</svg>
