<svg width="35" height="35" viewBox="0 0 35 35" xmlns="http://www.w3.org/2000/svg">
<path d="M16.0391 30.5717H0V2.84563H32.0935V13.0717H29.05V5.88915H3.04346V27.5283H16.0391L16.0391 30.5717ZM17.5761 7.27392H14.5326V0H17.5761V7.27392ZM10.3022 7.27392H7.25864V0H10.3022V7.27392ZM24.8348 7.27392H21.7913V0H24.8349L24.8348 7.27392ZM14.5935 13.1478H11.687V10.1043H14.5935V13.1478ZM20.4066 13.1478H17.5V10.1043H20.4066V13.1478ZM26.2196 13.1478H23.313V10.1043H26.2196L26.2196 13.1478ZM8.78044 18.9609H5.87394V15.9173H8.78047L8.78044 18.9609ZM14.5935 18.9609H11.687V15.9173H14.5935V18.9609ZM8.78044 24.7739H5.87394V21.7304H8.78047L8.78044 24.7739ZM14.5935 24.7739H11.687V21.7304H14.5935V24.7739ZM20.4066 18.9609H17.5V15.9173H20.4066V18.9609ZM26.2196 20.2696C26.2572 20.2691 26.3017 20.2688 26.3462 20.2688C28.6013 20.2688 30.6775 21.0353 32.3283 22.322L32.3065 22.3057C33.9242 23.5317 34.9672 25.443 35 27.5991V27.6043C34.9654 29.7651 33.9216 31.6751 32.3204 32.8877L32.3035 32.9C30.6744 34.1704 28.5983 34.9369 26.3431 34.9369C26.2986 34.9369 26.2542 34.9365 26.2098 34.936L26.2165 34.9361C26.1789 34.9366 26.1345 34.9369 26.0899 34.9369C23.8348 34.9369 21.7586 34.1704 20.1078 32.8837L20.1296 32.9001C18.5139 31.674 17.4722 29.7642 17.4392 27.6097L17.4391 27.6044C17.4727 25.4425 18.5168 23.5312 20.1188 22.3179L20.1357 22.3056C21.7647 21.0353 23.8408 20.2688 26.096 20.2688C26.1395 20.2688 26.1828 20.2691 26.2261 20.2697L26.2195 20.2696L26.2196 20.2696ZM26.2196 31.8956C26.2572 31.8964 26.3014 31.8968 26.3457 31.8968C27.8779 31.8968 29.2896 31.3813 30.4171 30.5144L30.4013 30.526C31.3143 29.8572 31.9122 28.8049 31.9563 27.6111L31.9565 27.6043C31.9122 26.4037 31.3143 25.3514 30.4119 24.6899L30.4013 24.6825C29.2897 23.8272 27.8778 23.3117 26.3457 23.3117C26.3014 23.3117 26.2571 23.3122 26.213 23.313L26.2196 23.3129C26.1821 23.3122 26.1378 23.3117 26.0935 23.3117C24.5614 23.3117 23.1496 23.8272 22.0222 24.6942L22.0379 24.6826C21.1249 25.3513 20.527 26.4036 20.4829 27.5974L20.4827 27.6043C20.5265 28.8054 21.1245 29.8584 22.0273 30.5201L22.0379 30.5275C23.1492 31.3819 24.5602 31.8968 26.0915 31.8968C26.1365 31.8968 26.1815 31.8963 26.2263 31.8954L26.2196 31.8955L26.2196 31.8956ZM29.8383 14.4261H33.5392V18.1239C33.5357 20.9716 31.2281 23.2791 28.3808 23.2826H24.6978V19.6198C24.6978 19.6093 24.6977 19.597 24.6977 19.5847C24.6977 16.7431 26.9953 14.4381 29.8341 14.4261H29.8353H29.8383ZM30.4957 17.4696H29.8443C28.6814 17.4764 27.7413 18.4208 27.7413 19.5847C27.7413 19.5901 27.7413 19.5955 27.7413 19.6008V19.6V20.2361H28.3805C29.548 20.2344 30.4939 19.2884 30.4957 18.1211V18.1209V17.4696ZM27.7413 21.7609H24.6978V20.3152C24.6979 20.3107 24.6979 20.3053 24.6979 20.3C24.6979 18.7368 23.4306 17.4696 21.8674 17.4696H21.8578H21.8582L21.8476 14.426H21.8689C25.113 14.426 27.7428 17.0559 27.7428 20.2999V20.3209V20.3197L27.7413 21.7609Z" fill="white"/>
</svg>
