<svg width="52" height="52" viewBox="0 0 52 52" xmlns="http://www.w3.org/2000/svg">
<path d="M19.2833 22.125L31.6058 0.786626C29.7975 0.399126 27.9375 0.166626 26 0.166626C19.8 0.166626 14.1166 2.36246 9.67329 5.97913L19.1283 22.3833L19.2833 22.125ZM50.645 18.25C48.2683 10.7066 42.5075 4.66163 35.145 1.87163L25.69 18.25H50.645ZM51.3166 20.8333H31.9675L32.7166 22.125L45.0133 43.4375C49.25 38.8391 51.8333 32.7425 51.8333 26C51.8333 24.2175 51.6525 22.5125 51.3166 20.8333ZM17.0616 26L6.98663 8.56246C2.77579 13.1608 0.166626 19.2575 0.166626 26C0.166626 27.7825 0.347459 29.4875 0.683293 31.1666H20.0325L17.0616 26ZM1.35496 33.75C3.73163 41.2933 9.49246 47.3383 16.855 50.1283L26.31 33.75H1.35496ZM30.4691 33.75L20.3941 51.2133C22.2025 51.6008 24.0625 51.8333 26 51.8333C32.2 51.8333 37.8833 49.6375 42.3266 46.0208L32.8716 29.6166L30.4691 33.75Z" fill="white"/>
</svg>
